<?xml version="1.0" encoding="UTF-8" standalone="no"?>
<svg
   xmlns:dc="http://purl.org/dc/elements/1.1/"
   xmlns:cc="http://creativecommons.org/ns#"
   xmlns:rdf="http://www.w3.org/1999/02/22-rdf-syntax-ns#"
   xmlns:svg="http://www.w3.org/2000/svg"
   xmlns="http://www.w3.org/2000/svg"
   xmlns:sodipodi="http://sodipodi.sourceforge.net/DTD/sodipodi-0.dtd"
   xmlns:inkscape="http://www.inkscape.org/namespaces/inkscape"
   t="1723710238701"
   class="icon"
   viewBox="0 0 1024 1024"
   version="1.1"
   p-id="6993"
   width="200"
   height="200"
   id="svg845"
   sodipodi:docname="empty-box.svg"
   inkscape:version="1.0.2-2 (e86c870879, 2021-01-15)">
  <metadata
     id="metadata851">
    <rdf:RDF>
      <cc:Work
         rdf:about="">
        <dc:format>image/svg+xml</dc:format>
        <dc:type
           rdf:resource="http://purl.org/dc/dcmitype/StillImage" />
        <dc:title></dc:title>
      </cc:Work>
    </rdf:RDF>
  </metadata>
  <defs
     id="defs849" />
  <sodipodi:namedview
     pagecolor="#ffffff"
     bordercolor="#666666"
     borderopacity="1"
     objecttolerance="10"
     gridtolerance="10"
     guidetolerance="10"
     inkscape:pageopacity="0"
     inkscape:pageshadow="2"
     inkscape:window-width="2560"
     inkscape:window-height="1387"
     id="namedview847"
     showgrid="false"
     inkscape:zoom="3.675"
     inkscape:cx="100"
     inkscape:cy="100"
     inkscape:window-x="-8"
     inkscape:window-y="22"
     inkscape:window-maximized="1"
     inkscape:current-layer="svg845" />
  <path
     d="m 998.397,384.68843 c 0.01,-0.40129 -0.007,-0.80258 -0.0157,-1.20683 -0.01,-0.3321 -0.01,-0.6642 -0.0313,-0.99235 -0.0255,-0.35385 -0.0784,-0.70769 -0.12246,-1.06154 -0.0441,-0.37361 -0.0813,-0.74624 -0.14694,-1.11294 -0.0529,-0.29948 -0.12834,-0.59995 -0.19397,-0.89746 -0.0911,-0.41315 -0.17634,-0.83025 -0.28802,-1.2355 -0.0725,-0.25896 -0.16654,-0.51396 -0.24785,-0.77095 -0.14107,-0.44181 -0.2792,-0.88165 -0.4477,-1.31456 -0.0911,-0.23722 -0.20376,-0.47048 -0.30369,-0.70374 a 20.936011,21.123029 0 0 0 -0.59562,-1.30271 c -0.0343,-0.0692 -0.0588,-0.14134 -0.097,-0.21152 -0.097,-0.18581 -0.21258,-0.35681 -0.31642,-0.53966 -0.20965,-0.37559 -0.41929,-0.75217 -0.65147,-1.1159 a 20.839026,21.025178 0 0 0 -0.58778,-0.86979 20.501049,20.684181 0 0 0 -0.62698,-0.85892 20.751838,20.93721 0 0 0 -0.75139,-0.90636 c -0.2067,-0.23721 -0.41145,-0.47443 -0.62697,-0.70176 a 24.353996,24.571545 0 0 0 -1.54686,-1.48852 22.191917,22.390154 0 0 0 -7.43845,-4.25308 21.922515,22.118345 0 0 0 -0.97965,-0.29355 c -0.34777,-0.0978 -0.69555,-0.1957 -1.05214,-0.27774 a 24.53523,24.754399 0 0 0 -1.18145,-0.22733 c -0.22532,-0.0386 -0.44476,-0.0988 -0.67302,-0.12948 l -130.38106,-18.15685 67.86007,-68.46625 c 0.24099,-0.24413 0.44769,-0.50606 0.67595,-0.75513 0.18907,-0.20559 0.37619,-0.40525 0.55546,-0.61973 a 22.127261,22.324919 0 0 0 1.68499,-2.27825 c 0.0656,-0.10082 0.11854,-0.21152 0.18124,-0.31333 0.48884,-0.78972 0.91499,-1.6012 1.29313,-2.43541 0.0441,-0.0919 0.1009,-0.17395 0.14107,-0.26884 0.0343,-0.082 0.0598,-0.16407 0.094,-0.24314 0.18516,-0.43589 0.34778,-0.87869 0.50452,-1.32446 0.0941,-0.26489 0.19103,-0.5278 0.27528,-0.79269 0.11952,-0.38251 0.21552,-0.77095 0.31349,-1.15939 0.0842,-0.33803 0.17535,-0.6731 0.24491,-1.01113 0.0617,-0.31036 0.1058,-0.61973 0.15282,-0.93305 0.0656,-0.41315 0.13422,-0.82432 0.17536,-1.23846 0.0245,-0.25599 0.0343,-0.51199 0.05,-0.76403 0.0313,-0.45862 0.0627,-0.91624 0.0656,-1.37486 0,-0.25303 -0.0157,-0.50507 -0.0245,-0.76106 a 23.51346,23.723501 0 0 0 -0.0627,-1.34422 c -0.0294,-0.31234 -0.0784,-0.61874 -0.11952,-0.93107 -0.05,-0.37955 -0.094,-0.7581 -0.16262,-1.13468 -0.0725,-0.39833 -0.17242,-0.79072 -0.2694,-1.18509 -0.0686,-0.28071 -0.12539,-0.56536 -0.20377,-0.8431 -0.12735,-0.4517 -0.28409,-0.8945 -0.4379,-1.3373 -0.0784,-0.21745 -0.14401,-0.44182 -0.22924,-0.65729 -0.17241,-0.44181 -0.37226,-0.87473 -0.57309,-1.31061 -0.0999,-0.21547 -0.19103,-0.43292 -0.29683,-0.64444 -0.19495,-0.38547 -0.41341,-0.76106 -0.63285,-1.13764 -0.14695,-0.25699 -0.29194,-0.51496 -0.4477,-0.76799 -0.19495,-0.3064 -0.40753,-0.60094 -0.61718,-0.89746 a 21.459142,21.650833 0 0 0 -0.67399,-0.92316 c -0.18418,-0.23327 -0.38207,-0.45763 -0.57603,-0.68496 a 20.697957,20.882848 0 0 0 -0.90128,-1.0052 l -0.18809,-0.21152 c -0.13225,-0.13244 -0.2792,-0.2471 -0.41341,-0.37559 a 21.230885,21.420536 0 0 0 -1.00218,-0.91328 c -0.24491,-0.20855 -0.49472,-0.40129 -0.74845,-0.59798 a 22.756193,22.95947 0 0 0 -0.9434,-0.69781 21.594333,21.787232 0 0 0 -0.97964,-0.63257 c -0.27235,-0.16704 -0.54469,-0.33803 -0.82976,-0.49222 a 20.510845,20.694065 0 0 0 -1.20007,-0.61281 c -0.1685,-0.083 -0.32524,-0.17791 -0.49766,-0.25303 L 607.90723,104.29903 c -0.0842,-0.0376 -0.17242,-0.0623 -0.25667,-0.10082 a 21.058467,21.246578 0 0 0 -1.27746,-0.49617 c -0.2694,-0.0978 -0.5388,-0.19867 -0.81114,-0.28664 a 20.647995,20.83244 0 0 0 -1.14619,-0.31628 c -0.33308,-0.086 -0.66126,-0.17792 -0.9963,-0.2471 -0.31642,-0.0662 -0.63285,-0.1107 -0.95221,-0.16111 -0.39774,-0.0633 -0.79548,-0.13245 -1.19615,-0.17396 -0.26646,-0.0277 -0.53293,-0.0346 -0.79841,-0.0534 -0.44182,-0.0287 -0.88364,-0.0593 -1.32252,-0.0633 -0.26549,-0.003 -0.52901,0.0158 -0.7945,0.0257 -0.433,0.0129 -0.86502,0.0217 -1.29117,0.0633 -0.31936,0.0277 -0.63579,0.082 -0.95515,0.12256 -0.36639,0.0504 -0.73278,0.0919 -1.09623,0.15815 -0.39382,0.0731 -0.78274,0.17395 -1.17068,0.26884 -0.28213,0.0692 -0.56721,0.12651 -0.84543,0.20756 -0.43594,0.12454 -0.86209,0.27873 -1.29019,0.43094 -0.23218,0.082 -0.46729,0.15419 -0.69261,0.24315 -0.41929,0.16407 -0.82976,0.35978 -1.24023,0.5535 -0.23512,0.10971 -0.47317,0.21152 -0.70143,0.32815 -0.35757,0.18285 -0.70143,0.38843 -1.05214,0.59303 -0.28214,0.16506 -0.56722,0.32617 -0.8425,0.50408 -0.27234,0.17594 -0.5388,0.37164 -0.80526,0.56438 a 20.548072,20.731624 0 0 0 -1.00218,0.74327 c -0.20377,0.16407 -0.40068,0.341 -0.6015,0.51397 -0.36639,0.31628 -0.72886,0.63949 -1.07762,0.98345 -0.0588,0.0573 -0.12147,0.10774 -0.18123,0.16803 l -83.51971,84.3063 -83.55105,-84.29741 -0.21944,-0.19866 a 22.796359,22.999994 0 0 0 -0.9581,-0.87572 c -0.23805,-0.20757 -0.47316,-0.42007 -0.7171,-0.61577 -0.28213,-0.22437 -0.57309,-0.42996 -0.86404,-0.63851 -0.31349,-0.22733 -0.62306,-0.45466 -0.94634,-0.66321 -0.22532,-0.14629 -0.45652,-0.27181 -0.68575,-0.40821 a 20.623504,20.80773 0 0 0 -1.20203,-0.67902 c -0.17927,-0.0919 -0.36345,-0.16803 -0.54566,-0.25698 a 21.258315,21.448211 0 0 0 -1.396,-0.62171 c -0.17242,-0.0692 -0.35169,-0.12355 -0.52705,-0.1868 a 22.545569,22.746965 0 0 0 -1.45281,-0.48629 c -0.22532,-0.0633 -0.45358,-0.1107 -0.68281,-0.16803 -0.44085,-0.10971 -0.88267,-0.22338 -1.33134,-0.3064 -0.31545,-0.0593 -0.63873,-0.0939 -0.9581,-0.13838 -0.36247,-0.0504 -0.72298,-0.1107 -1.0874,-0.14233 -0.39088,-0.0346 -0.78862,-0.0445 -1.18342,-0.0563 -0.29977,-0.01 -0.60052,-0.0316 -0.90127,-0.0296 -0.41341,0.004 -0.82976,0.0356 -1.24415,0.0603 -0.29096,0.0198 -0.58191,0.0297 -0.87287,0.0603 -0.38206,0.0415 -0.76118,0.10477 -1.14324,0.16803 -0.33504,0.0534 -0.67008,0.10081 -1.00218,0.16803 -0.32328,0.0652 -0.64265,0.15419 -0.96201,0.23622 -0.39186,0.10082 -0.78568,0.19867 -1.1746,0.32222 -0.26842,0.085 -0.53488,0.18681 -0.80135,0.28466 a 21.058467,21.246578 0 0 0 -1.27746,0.49617 c -0.0852,0.0376 -0.17633,0.0633 -0.26058,0.10082 L 89.623639,239.73608 c -0.172417,0.0751 -0.329161,0.17297 -0.49766,0.25204 a 20.510845,20.694065 0 0 0 -1.200066,0.61281 c -0.282138,0.15814 -0.55448,0.32617 -0.82976,0.49321 a 20.650934,20.835405 0 0 0 -0.979646,0.63257 26.038987,26.271588 0 0 0 -0.943399,0.69781 c -0.250789,0.1957 -0.500599,0.38844 -0.748449,0.59699 -0.347775,0.29356 -0.675956,0.59996 -1.002178,0.91328 -0.134211,0.12849 -0.279199,0.24315 -0.413411,0.37559 -0.06564,0.0662 -0.122455,0.14233 -0.188092,0.21152 -0.313486,0.32617 -0.60738,0.6642 -0.901274,1.0052 -0.194949,0.22733 -0.391858,0.45169 -0.577011,0.68595 -0.235115,0.30047 -0.453576,0.6128 -0.673017,0.92217 -0.209644,0.29652 -0.423207,0.59106 -0.617177,0.89746 -0.159682,0.25007 -0.300751,0.50903 -0.447698,0.76799 -0.219441,0.37559 -0.438881,0.75118 -0.632851,1.13665 -0.106781,0.21251 -0.196909,0.43095 -0.297812,0.64543 -0.199848,0.43292 -0.400676,0.86583 -0.573093,1.3116 -0.08425,0.21745 -0.149886,0.43885 -0.228258,0.65728 -0.156743,0.44182 -0.313486,0.88758 -0.438881,1.33632 -0.07837,0.27774 -0.134212,0.56338 -0.202787,0.84409 -0.09405,0.39536 -0.194949,0.78676 -0.269402,1.1841 -0.06858,0.37559 -0.11266,0.75612 -0.162622,1.13468 -0.04115,0.30936 -0.09111,0.61972 -0.119516,0.93205 -0.04115,0.44577 -0.04996,0.8945 -0.0627,1.34324 -0.0059,0.25303 -0.02449,0.50507 -0.02449,0.76106 0.0029,0.45862 0.03429,0.91723 0.06564,1.37486 0.01568,0.256 0.02449,0.51199 0.04898,0.76502 0.04115,0.41315 0.1107,0.82432 0.176336,1.23846 0.04996,0.31234 0.09111,0.62269 0.152825,0.93206 0.06858,0.33803 0.160662,0.67211 0.244911,1.01113 0.09699,0.38844 0.19397,0.77391 0.313487,1.15939 0.08131,0.26588 0.181234,0.53077 0.274301,0.79368 0.156743,0.44478 0.320344,0.88758 0.505497,1.32445 0.03429,0.0811 0.05584,0.16309 0.09307,0.24216 0.04115,0.0949 0.100904,0.17396 0.141069,0.26885 0.379123,0.83025 0.808208,1.64666 1.293133,2.43639 0.06368,0.10082 0.119517,0.21152 0.182214,0.31234 a 22.127261,22.324919 0 0 0 1.684991,2.27825 c 0.178295,0.21547 0.369326,0.41513 0.554479,0.61973 0.225319,0.24907 0.434963,0.51199 0.675956,0.75513 l 68.687862,69.30046 -107.647402,17.39183 c -0.162621,0.0257 -0.316425,0.0731 -0.476107,0.1018 a 25.104404,25.328657 0 0 0 -2.173835,0.51397 18.659314,18.825995 0 0 0 -1.002177,0.32617 25.451199,25.67855 0 0 0 -1.064875,0.39141 c -0.300752,0.12058 -0.594645,0.25698 -0.889519,0.38942 a 20.200297,20.380743 0 0 0 -1.048221,0.50804 c -0.291934,0.15221 -0.574072,0.31925 -0.85817,0.48431 -0.323283,0.18879 -0.642647,0.3756 -0.952215,0.57723 -0.300752,0.19669 -0.595625,0.41117 -0.88658,0.62269 -0.272341,0.19965 -0.541744,0.39536 -0.805269,0.60292 a 20.841965,21.028143 0 0 0 -0.901274,0.7749 c -0.229237,0.20559 -0.457494,0.40722 -0.675955,0.62269 a 24.863412,25.085512 0 0 0 -1.46653,1.57353 27.541763,27.787789 0 0 0 -1.340156,1.75935 22.057706,22.254743 0 0 0 -1.184392,1.93429 c -0.07445,0.13838 -0.166539,0.26588 -0.238054,0.40722 -0.06858,0.13343 -0.118537,0.27181 -0.184173,0.40821 a 20.012205,20.190971 0 0 0 -0.541744,1.18805 19.301962,19.474383 0 0 0 -0.742572,2.02621 c -0.09405,0.30245 -0.188092,0.60589 -0.269402,0.91229 -0.09992,0.37955 -0.185153,0.76107 -0.266464,1.1505 -0.06857,0.33111 -0.13715,0.66025 -0.191031,0.99235 a 21.403302,21.594494 0 0 0 -0.144008,1.10503 24.318728,24.535963 0 0 0 -0.09992,1.07142 22.90314,23.10773 0 0 0 0.169479,4.41121 c 0.02155,0.16111 0.02449,0.32222 0.0529,0.4863 0.03135,0.18977 0.07837,0.36966 0.112659,0.55646 a 22.643534,22.845805 0 0 0 0.494721,2.09837 c 0.07543,0.25599 0.146947,0.51199 0.232176,0.76798 0.141069,0.42897 0.293894,0.85002 0.460434,1.26713 0.08425,0.21448 0.16556,0.426 0.256667,0.63751 0.188092,0.43688 0.394797,0.86287 0.610319,1.28294 0.09796,0.19274 0.191031,0.38548 0.290955,0.57228 0.232176,0.42007 0.480027,0.82828 0.736694,1.23254 0.115598,0.17988 0.22238,0.3657 0.340917,0.54361 0.272341,0.40129 0.564276,0.78281 0.858169,1.16236 0.128334,0.16803 0.247851,0.341 0.382062,0.50606 a 22.394704,22.594752 0 0 0 1.331339,1.47567 c 0.181235,0.18582 0.385001,0.35385 0.573093,0.53374 0.306629,0.29059 0.613258,0.58118 0.936541,0.85002 0.219441,0.18285 0.450637,0.35385 0.678895,0.53077 0.326222,0.25303 0.655383,0.50507 0.9963,0.73932 a 25.179837,25.404764 0 0 0 1.847612,1.13666 c 0.119517,0.0672 0.225318,0.14331 0.344835,0.20657 l 163.951568,86.56281 2.34527,254.01403 c 0.003,0.2303 0.0314,0.4517 0.0411,0.682 0.0157,0.41413 0.0343,0.82827 0.0715,1.24241 0.0353,0.37263 0.0911,0.73932 0.14401,1.10503 0.047,0.32617 0.094,0.65135 0.15674,0.97653 0.0813,0.42007 0.18221,0.83421 0.28508,1.24538 0.0686,0.26885 0.13519,0.5367 0.21356,0.80555 0.12441,0.42699 0.26548,0.84705 0.41635,1.26416 0.0901,0.25303 0.18123,0.50507 0.28116,0.7581 0.16066,0.39536 0.33308,0.7838 0.51431,1.16927 0.12735,0.27181 0.25373,0.54065 0.39186,0.80851 a 23.385126,23.594021 0 0 0 2.37368,3.64718 c 0.18417,0.2303 0.37814,0.45467 0.57603,0.67607 0.27234,0.31233 0.5486,0.62269 0.83956,0.92217 0.21258,0.21745 0.43104,0.42402 0.65146,0.62862 0.29096,0.27577 0.57897,0.54659 0.8856,0.80653 0.27626,0.23327 0.56428,0.44874 0.84936,0.66915 0.2694,0.20559 0.53194,0.41513 0.8131,0.60984 0.38206,0.26588 0.78078,0.50902 1.18146,0.7492 0.17241,0.10478 0.3321,0.22141 0.50745,0.32222 l 0.32916,0.18681 0.0186,0.01 274.06572,155.17139 a 21.898024,22.093635 0 0 0 21.04965,0.22733 l 274.389,-147.70207 a 22.034194,22.231022 0 0 0 1.92697,-1.16334 c 0.21846,-0.14826 0.41634,-0.31629 0.62893,-0.47048 0.35757,-0.26193 0.7171,-0.51397 1.05802,-0.79566 0.37618,-0.31036 0.72493,-0.64542 1.07761,-0.97654 0.16066,-0.15221 0.32622,-0.29058 0.48296,-0.44576 0.34778,-0.35088 0.67008,-0.71758 0.98944,-1.08724 0.14401,-0.16803 0.29782,-0.32222 0.43889,-0.49321 0.27821,-0.341 0.53194,-0.69781 0.78861,-1.05165 0.16654,-0.22734 0.33798,-0.44478 0.49472,-0.67903 0.20377,-0.30344 0.38206,-0.62269 0.57015,-0.93601 0.18516,-0.30641 0.37619,-0.60985 0.54469,-0.92514 0.13813,-0.25699 0.25471,-0.52188 0.38206,-0.7838 0.18809,-0.38844 0.37912,-0.77095 0.54566,-1.17224 0.0901,-0.2214 0.16654,-0.4517 0.24981,-0.67606 0.16654,-0.44281 0.33602,-0.88165 0.47317,-1.33731 0.0725,-0.24018 0.1254,-0.48332 0.19103,-0.7235 0.11952,-0.44182 0.241,-0.87869 0.33504,-1.33038 0.0754,-0.35978 0.11952,-0.72648 0.17634,-1.09021 0.049,-0.33407 0.1156,-0.66618 0.15282,-1.00816 0.0813,-0.76107 0.1254,-1.52609 0.12834,-2.29308 l 2.35506,-248.86053 187.96955,-99.23999 c 0.13421,-0.0731 0.25667,-0.15814 0.39186,-0.23128 a 22.850239,23.054356 0 0 0 1.87896,-1.16829 c 0.3223,-0.22437 0.63873,-0.46158 0.9483,-0.70176 0.25079,-0.1957 0.50158,-0.38844 0.73963,-0.59106 0.27822,-0.23722 0.54174,-0.48432 0.80821,-0.73339 0.23805,-0.22042 0.47904,-0.43885 0.70436,-0.67211 0.27528,-0.2817 0.53195,-0.58513 0.79254,-0.88264 0.18417,-0.21152 0.38206,-0.41315 0.55741,-0.63159 a 21.828469,22.023458 0 0 0 2.2865,-3.44061 c 0.0431,-0.0791 0.0784,-0.16506 0.11854,-0.24314 0.27528,-0.53176 0.5388,-1.07142 0.77392,-1.62789 0.0627,-0.1453 0.11265,-0.29652 0.16849,-0.44478 0.19495,-0.48728 0.37913,-0.97752 0.53881,-1.4826 0.0725,-0.22436 0.12539,-0.45169 0.19103,-0.67902 a 21.421916,21.613274 0 0 0 0.33504,-1.29579 c 0.0656,-0.30047 0.11266,-0.60688 0.16654,-0.90933 0.049,-0.28169 0.1156,-0.5535 0.15282,-0.84112 0.0127,-0.0919 0.0127,-0.17989 0.0255,-0.27181 0.0529,-0.42007 0.0813,-0.84014 0.10973,-1.26416 0.0245,-0.3321 0.0529,-0.64147 0.0627,-0.95084 z m -328.2852,136.23469 -99.24498,-13.82075 235.49217,-124.33538 99.24792,13.82075 z m -316.45304,-0.1196 -237.44851,-125.36825 77.64183,-12.54473 237.4495,125.36825 -77.64184,12.54473 z m 42.41475,-369.89961 65.82828,66.41237 -259.47291,116.19593 -65.82437,-66.41335 259.469,-116.19593 z m 207.82207,-0.004 259.47488,116.1989 -65.82437,66.41335 L 538.07416,217.31628 Z M 499.99042,494.59915 247.95008,361.53029 499.99042,248.6613 752.02783,361.53029 499.99042,494.59816 Z m -160.21128,68.8023 c 0.0842,0.0435 0.17144,0.0721 0.25667,0.11663 0.71024,0.36274 1.4342,0.70176 2.18559,0.98543 l 0.0372,0.0158 a 21.43759,21.629088 0 0 0 2.90661,0.85299 c 0.58582,0.13244 1.18047,0.24018 1.77903,0.32221 0.21259,0.0287 0.42615,0.0633 0.63873,0.089 0.77098,0.082 1.54392,0.13837 2.33058,0.13837 h 0.01 a 21.922515,22.118345 0 0 0 3.23772,-0.26192 c 0.0813,-0.0129 0.16263,-0.006 0.24492,-0.0198 l 124.65878,-20.13957 v 73.44974 c 0,1.87993 0.25667,3.69661 0.69555,5.44113 a 21.885288,22.080785 0 0 0 -0.69555,5.44112 v 231.85418 l -230.68798,-130.61071 -2.00828,-217.5244 94.40945,49.8488 z M 752.60386,738.41688 521.91098,862.59214 V 629.83457 c 0,-1.87993 -0.25667,-3.69661 -0.69555,-5.44113 a 21.865695,22.061017 0 0 0 0.69555,-5.44112 v -74.00918 l 149.15108,20.77314 0.0402,0.003 c 0.98357,0.13541 1.97595,0.20559 2.97519,0.20559 h 0.01 c 0.79253,0 1.57233,-0.0573 2.34527,-0.13936 0.21356,-0.0217 0.42614,-0.0593 0.63971,-0.089 a 20.768492,20.954013 0 0 0 1.77218,-0.32222 c 0.20964,-0.0474 0.4232,-0.0949 0.63285,-0.14826 1.58115,-0.40722 3.10058,-0.98839 4.53478,-1.7287 0.0715,-0.0376 0.14401,-0.0593 0.21552,-0.0978 l 70.38755,-37.16175 -2.01023,212.17717 z"
     p-id="6994"
     fill="#707070"
     id="path843"
     style="stroke-width:0.984012" />
</svg>
